<svg id="Layer_1" data-name="Layer 1" xmlns="http://www.w3.org/2000/svg" viewBox="0 0 159.1 230.44"><defs><style>.cls-1{fill:#16a085;}</style></defs><title>mrdeno</title><circle class="cls-1" cx="57.14" cy="67.09" r="6.03"/><path class="cls-1" d="M138,75.58a51.87,51.87,0,0,1-9,8.9,62.17,62.17,0,0,1-16,8.42c-19.24,6.73-48.54,1.08-50.47.69l-6.26-2.31-.46,6.65c-2.4,34.16,2.51,66.84,14.58,97.15A212.06,212.06,0,0,0,81.16,218a81.87,81.87,0,0,1-42-.25,79,79,0,0,1-16.57-6.81c-1.57-8.06-3.05-16.27-4.42-24.47C4.88,106.6,11.31,78.55,13.42,69.33,15.46,60.41,17,54.17,20,48.1a53.83,53.83,0,0,1,3.74-6.34A85.09,85.09,0,0,1,47.81,18.33,76.18,76.18,0,0,1,89.24,8.23c8.68.37,21.66,1,33.87,9.84,19.22,13.89,21.11,37.5,21.36,41.34A9.34,9.34,0,0,0,153,50.27c-1-5.65-5.83-27.55-25.34-40.4C114.37,1.09,101,.57,89.48.21,80.81-.06,61.3-.4,41.22,11.6a80,80,0,0,0-25.7,24.52C8.6,46.72,6,57,3.7,67.12-.15,84-3.86,114.79,8.38,188.12c1.51,9,3.16,18.14,4.91,27l.44,2.21,1.9,1.1A87.7,87.7,0,0,0,60.3,230.57a98,98,0,0,0,29.82-4.77l5.93-1.91-3.15-5.38a202.55,202.55,0,0,1-13.26-27.13A207.88,207.88,0,0,1,65.38,105c6.09,1.8,27.64,7.34,51.57-2.94A76.52,76.52,0,0,0,151.2,72.66,20.52,20.52,0,0,1,138,75.58Z" transform="translate(0 -0.13)"/><path class="cls-1" d="M158.79,46.35l-.11-.72-1.37.13v.73a19.61,19.61,0,0,1-2,9.49,15.21,15.21,0,0,1-6.12,6.63,10.32,10.32,0,0,1-3.86,1.26q-.42,0-.84,0a9,9,0,0,1-2.86-.5,12.26,12.26,0,0,1-3.4-1.87,15.1,15.1,0,0,1-2.79-2.8h0l-.8-.59a4.7,4.7,0,0,0-2.76-1h-.08A4.75,4.75,0,0,0,127,61.79a21,21,0,0,1-2,8.6,15.54,15.54,0,0,1-5.63,6.52,12.62,12.62,0,0,1-6.7,1.94,12.32,12.32,0,0,1-1.72-.12,15.84,15.84,0,0,1-8.34-4l-1.42-1.32-2.65,2.47,1.26,1.48A20.87,20.87,0,0,0,110,84a18.53,18.53,0,0,0,5.07.71,19,19,0,0,0,7.61-1.59,23,23,0,0,0,9.78-8.32,28.36,28.36,0,0,0,2.78-5.25,20.18,20.18,0,0,0,5.26,1.19h1.26a15.63,15.63,0,0,0,10.56-4,20.36,20.36,0,0,0,5.91-9.67A25.27,25.27,0,0,0,158.79,46.35Z" transform="translate(0 -0.13)"/></svg>