<svg xmlns="http://www.w3.org/2000/svg" viewBox="0 0 209.42 247.97">
    <defs>
        <style>.cls-1,.cls-2{stroke:#27ae60;stroke-miterlimit:10;}.cls-2{fill:#fff;}</style>
    </defs>
    <title>mrdeno</title>
    <g fill="#2ecc71" id="Layer_2" data-name="Layer 2">
        <path class="cls-1" d="M887.47,530.29a29.45,29.45,0,0,1-10.49-2.9c-.26-.12-.51-.28-.77-.41a26.28,26.28,0,0,1-1.82,3.28,29,29,0,0,1-9.61,9.33,34.22,34.22,0,0,1-11.91,4.2,39.83,39.83,0,0,1-6,.53,38.08,38.08,0,0,1-6.07-.36,3.23,3.23,0,0,1,.25-6.42h.18a38.82,38.82,0,0,0,9.71-1.92,26,26,0,0,0,8.2-4.38,18,18,0,0,0,5.17-6.66,44.76,44.76,0,0,0,2.41-8.3L877.07,513h0c3.17,3.88,7,7,11.86,8.4a22.22,22.22,0,0,0,7.69.74,30,30,0,0,0,6.2-1.15,34.88,34.88,0,0,0-.42-7c-1.2-7.4-5-15.78-19.58-28a159.87,159.87,0,0,0-19.21-14.33,9.08,9.08,0,0,1,.55,1.33c1.18,3.66.06,8.11-2.8,10-4.17,2.76-11.21-.55-12.12-6-.7-4.18,2.31-9,6.38-9.86A107.71,107.71,0,0,0,825.92,457c-12.66-2.36-40.4-7.52-68.09,9-20.26,12.09-30.47,29.8-34.51,37-11,19.64-13.34,38-14.93,52-3.22,28.53-7,70.44-8.39,124a175.85,175.85,0,0,0,46.64,18,171.08,171.08,0,0,0,48.5,4,378.49,378.49,0,0,1-1.87-101c1.42-12.09,3.35-23.44,5.6-34a59.74,59.74,0,0,1-17.72-7c-4.41-2.64-6.32-4.6-6.53-7-.28-3.23,2.65-5.87,2.8-6,5.74-5,18.14,3.75,30.78,9,0,0,27.92,11.6,58.76,3,9.59-2.68,24.33-6.78,31.71-21a38.21,38.21,0,0,0,3.25-9.07,33.53,33.53,0,0,1-4,1.38A30.58,30.58,0,0,1,887.47,530.29ZM829.65,492c-4.18,2.76-11.21-.55-12.13-6-.76-4.55,2.86-9.86,7.47-10,3.43-.1,6.4,2.71,7.46,6C833.63,485.66,832.5,490.11,829.65,492Z" transform="translate(-699.49 -453.84)"/><path class="cls-2" d="M849.24,477c.91,5.45,8,8.76,12.12,6,2.86-1.89,4-6.34,2.8-10a9.08,9.08,0,0,0-.55-1.33c-1.34-2.68-4-4.76-6.91-4.67a6.38,6.38,0,0,0-1.08.14C851.55,468,848.54,472.82,849.24,477Z" transform="translate(-699.49 -453.84)"/><path class="cls-2" d="M825,476c-4.61.14-8.23,5.45-7.47,10,.92,5.45,8,8.76,12.13,6,2.85-1.89,4-6.34,2.8-10C831.39,478.71,828.42,475.9,825,476Z" transform="translate(-699.49 -453.84)"/><path class="cls-2" d="M908.23,522a2.74,2.74,0,0,0-3.54-1.62h0c-.61.23-1.22.42-1.83.6a30,30,0,0,1-6.2,1.15,22.22,22.22,0,0,1-7.69-.74c-4.83-1.36-8.69-4.52-11.86-8.4h0l-10.38,3.31a44.76,44.76,0,0,1-2.41,8.3,18,18,0,0,1-5.17,6.66,26,26,0,0,1-8.2,4.38,38.82,38.82,0,0,1-9.71,1.92H841a3.23,3.23,0,0,0-.25,6.42,38.08,38.08,0,0,0,6.07.36,39.83,39.83,0,0,0,6-.53,34.22,34.22,0,0,0,11.91-4.2,29,29,0,0,0,9.61-9.33,26.28,26.28,0,0,0,1.82-3.28c.26.13.51.29.77.41a29.45,29.45,0,0,0,10.49,2.9,30.58,30.58,0,0,0,10.46-1,33.53,33.53,0,0,0,4-1.38,35.83,35.83,0,0,0,5.19-2.68A2.74,2.74,0,0,0,908.23,522Z" transform="translate(-699.49 -453.84)"/></g></svg>